<?xml version="1.0" encoding="utf-8"?>
<!-- Generator: Adobe Illustrator 25.3.1, SVG Export Plug-In . SVG Version: 6.00 Build 0)  -->
<svg version="1.1" id="Layer_1" xmlns="http://www.w3.org/2000/svg" xmlns:xlink="http://www.w3.org/1999/xlink" x="0px" y="0px"
	 viewBox="0 0 408.8 408.8" width="20" height="auto" style="enable-background:new 0 0 408.8 408.8;" xml:space="preserve">
<style type="text/css">
	.st0{fill:#FFFFFF;}
</style>
<path class="st0" d="M322.4,167.7h-56.3v-39.4c0-17.9,5-30,30.6-30h23.7c4.9,0,9-4,9-9V49.6c0-5-4-9-9-9h-38.6
	c-47.1,0-79.4,28.8-79.4,81.5v45.5h-37.9c-5,0-9,4-8.9,9l0.2,47.1c0,4.9,4,8.9,8.9,8.9h38l-0.2,146.1H202c0,0.1,0,0.1,0,0.2h64.4
	c0-0.1,0-0.1,0-0.2h-0.3l0.2-146.1h50.5c4.5,0,8.3-3.4,8.9-7.9l5.6-47.1C331.9,172.4,327.7,167.7,322.4,167.7z"/>
</svg>
