<?xml version="1.0" encoding="utf-8"?>
<!-- Generator: Adobe Illustrator 25.3.1, SVG Export Plug-In . SVG Version: 6.00 Build 0)  -->
<svg version="1.1" id="Layer_1" xmlns="http://www.w3.org/2000/svg" xmlns:xlink="http://www.w3.org/1999/xlink" x="0px" y="0px"
	 viewBox="0 0 512 512" width="20" height="auto" style="enable-background:new 0 0 512 512;" xml:space="preserve">
<style type="text/css">
	.st0{fill:#FFFFFF;}
</style>
<g>
	<path class="st0" d="M52,175.3c1.4-9.6,2.4-19.3,4.1-28.8c9.8-54.1,48.1-90.8,102.8-92.7c65.9-2.3,132-2.4,197.9,0
		c59.6,2.1,102.7,46.2,104.6,105.8c2,63.3,2,126.7,0,190c-1.9,59.6-45,103.7-104.6,105.8c-65.9,2.4-132,2.4-197.9,0
		c-59.6-2.2-100.8-46.4-104.7-106.1c-0.3-5.2-1.5-10.3-2.2-15.4C52,281,52,228.1,52,175.3z M257.5,420.1c30.2,0,60.3,0.9,90.4-0.2
		c47.2-1.8,76.3-29.9,77.4-77.1c1.4-58.8,1.4-117.6,0-176.4c-1.1-47.2-30.2-76-77.4-77c-59.9-1.3-119.9-1.3-179.8,0
		c-46.8,1-76,29.2-77.2,75.9c-1.6,59.5-1.6,119.1,0,178.7c1.3,46.6,30.4,74.2,77.2,76C197.9,421,227.7,420.1,257.5,420.1z"/>
	<path class="st0" d="M257.4,149.9c-57.8,0-104.7,46.9-104.7,104.7c0,57.8,46.9,104.7,104.7,104.7c57.8,0,104.7-46.9,104.7-104.7
		C362.1,196.8,315.3,149.9,257.4,149.9z M257.4,323.2c-37.9,0-68.7-30.7-68.7-68.7s30.7-68.7,68.7-68.7s68.7,30.7,68.7,68.7
		S295.3,323.2,257.4,323.2z"/>
	<path class="st0" d="M393.1,145.1c0,13.8-11.2,24.9-24.9,24.9s-24.9-11.2-24.9-24.9c0-13.8,11.2-24.9,24.9-24.9
		S393.1,131.4,393.1,145.1z"/>
</g>
</svg>
