<?xml version="1.0" encoding="utf-8"?>
<!-- Generator: Adobe Illustrator 26.0.1, SVG Export Plug-In . SVG Version: 6.00 Build 0)  -->
<svg version="1.1" id="Layer_1" xmlns="http://www.w3.org/2000/svg" xmlns:xlink="http://www.w3.org/1999/xlink" x="0px" y="0px"
	 viewBox="0 0 35.71 60.13" style="enable-background:new 0 0 35.71 60.13;" xml:space="preserve">
<style type="text/css">
	.st0{fill:none;stroke:#FFFFFF;stroke-miterlimit:10;}
	.st1{fill:#164955;}
	.st2{fill:#FFFFFF;}
	.st3{fill:none;stroke:#FFFFFF;stroke-width:2;stroke-miterlimit:10;}
	.st4{fill:none;stroke:#FFFFFF;stroke-width:3;stroke-miterlimit:10;}
	.st5{fill:#30323E;}
	.st6{fill:#FFFFFF;stroke:#FFFFFF;stroke-miterlimit:10;}
	.st7{fill:#FFFFFF;stroke:#164955;stroke-miterlimit:10;}
	.st8{fill:none;}
	.st9{fill:#174955;}
	.st10{fill:none;stroke:#F1F2F2;stroke-miterlimit:10;}
	.st11{fill:#164955;stroke:#FFFFFF;stroke-width:3;stroke-miterlimit:10;}
</style>
<g>
	<path class="st2" d="M17.55,0.34C7.87,0.34,0,8.21,0,17.89c0,6.84,3.49,13.15,6.44,19.06c1.68,3.36,3.35,6.72,5.03,10.08
		c2.18,4.36,4.36,8.73,6.54,13.1c-0.1-0.21,0.79-1.59,0.89-1.79c2.93-5.88,5.86-11.76,8.79-17.65c2.03-4.07,4.05-7.92,5.47-11.97
		c1.18-3.38,1.95-6.91,1.95-10.83C35.11,8.21,27.23,0.34,17.55,0.34z M17.69,28.76c-6.34,0-11.49-5.16-11.49-11.5
		c0-6.34,5.15-11.5,11.49-11.5c6.34,0,11.5,5.16,11.5,11.5C29.19,23.6,24.03,28.76,17.69,28.76z"/>
</g>
<line class="st0" x1="33.32" y1="43.43" x2="33.32" y2="43.43"/>
<g>
	<path class="st8" d="M29.19,17.26c0,6.34-5.16,11.5-11.5,11.5c-6.34,0-11.49-5.16-11.49-11.5c0-6.34,5.15-11.5,11.49-11.5
		C24.03,5.76,29.19,10.92,29.19,17.26z"/>
</g>
</svg>
