<?xml version="1.0" encoding="utf-8"?>
<!-- Generator: Adobe Illustrator 26.0.1, SVG Export Plug-In . SVG Version: 6.00 Build 0)  -->
<svg version="1.1" id="Layer_1" xmlns="http://www.w3.org/2000/svg" xmlns:xlink="http://www.w3.org/1999/xlink" x="0px" y="0px"
	 viewBox="0 0 21.97 37.68" style="enable-background:new 0 0 21.97 37.68;" xml:space="preserve">
<style type="text/css">
	.st0{fill:none;stroke:#FFFFFF;stroke-miterlimit:10;}
	.st1{fill:#164955;}
	.st2{fill:#FFFFFF;}
	.st3{fill:none;stroke:#FFFFFF;stroke-width:2;stroke-miterlimit:10;}
	.st4{fill:none;stroke:#FFFFFF;stroke-width:3;stroke-miterlimit:10;}
	.st5{fill:#30323E;}
	.st6{fill:#FFFFFF;stroke:#FFFFFF;stroke-miterlimit:10;}
	.st7{fill:#FFFFFF;stroke:#164955;stroke-miterlimit:10;}
	.st8{fill:none;}
	.st9{fill:#174955;}
	.st10{fill:none;stroke:#F1F2F2;stroke-miterlimit:10;}
	.st11{fill:#164955;stroke:#FFFFFF;stroke-width:3;stroke-miterlimit:10;}
</style>
<g>
	<path class="st2" d="M10.96,0.34C4.92,0.34,0,5.25,0,11.3c0,4.27,2.18,8.21,4.02,11.9c1.05,2.1,2.09,4.2,3.14,6.3
		c1.36,2.72,2.72,5.45,4.08,8.18c-0.06-0.13,0.49-0.99,0.56-1.12c1.83-3.67,3.66-7.34,5.49-11.02c1.27-2.54,2.53-4.95,3.42-7.48
		c0.74-2.11,1.22-4.32,1.22-6.76C21.93,5.25,17.01,0.34,10.96,0.34z M11.05,18.09c-3.96,0-7.18-3.22-7.18-7.18
		c0-3.96,3.22-7.18,7.18-7.18c3.96,0,7.18,3.22,7.18,7.18C18.23,14.86,15.01,18.09,11.05,18.09z"/>
</g>
<g>
	<path class="st8" d="M29.19,17.26c0,6.34-5.16,11.5-11.5,11.5c-6.34,0-11.49-5.16-11.49-11.5c0-6.34,5.15-11.5,11.49-11.5
		C24.03,5.76,29.19,10.92,29.19,17.26z"/>
</g>
</svg>
