<?xml version="1.0" encoding="utf-8"?>
<!-- Generator: Adobe Illustrator 25.3.1, SVG Export Plug-In . SVG Version: 6.00 Build 0)  -->
<svg version="1.1" id="Layer_1" xmlns="http://www.w3.org/2000/svg" xmlns:xlink="http://www.w3.org/1999/xlink" x="0px" y="0px"
	 viewBox="0 0 512 512" width="20" height="auto"  style="enable-background:new 0 0 512 512;" xml:space="preserve">
<style type="text/css">
	.st0{fill:#FFFFFF;}
</style>
<path class="st0" d="M463,126.7c-14.5,7.6-36.4,11.1-43.7,12.1c-0.1-0.4-0.1-0.7-0.2-1c24.7-15.3,32.2-44,32.2-44
	c-15.3,8.7-28.7,13.6-38.9,16.3c-5.7,1.5-10.4,2.4-13.7,2.8c-15.4-15.8-36.8-25.5-60.6-25.5c-46.7,0-84.6,37.9-84.6,84.6
	c0,1.7,0,3.4,0.2,5c0.2,4.1,0.7,8,1.5,11.9c-22.6-0.3-104.3-7.3-172-85.9c0,0-37.7,65.7,25.7,110.7c0,0-25.7-0.8-39.3-10.4
	c0,0-4,63.3,69,83.4c0,0-25.7,6.4-38.5,0.8c0,0,12.8,54.5,77,58.5c0,0-46,42.1-121.1,36.1c36.9,23.4,80.8,36.9,127.7,36.9
	c132.1,0,239.1-107.1,239.1-239.1c0-1.6,0-3.3-0.1-4.9c0-1,0.1-1.9,0.1-2.9c0-0.7,0-1.4,0-2.1C447.2,153.6,463,126.7,463,126.7z"/>
</svg>
