<?xml version="1.0" encoding="utf-8"?>
<svg xmlns="http://www.w3.org/2000/svg" viewBox="0 0.0001 255.582 287.2523" width="2222px" height="2475.39px" preserveAspectRatio="none"><path d="M 201.892 116.294 L 201.892 129.768 L 215.366 129.768 L 215.366 116.294 L 222.103 116.294 L 222.103 129.768 L 235.577 129.768 L 235.577 136.505 L 222.103 136.505 L 222.103 149.978 L 235.577 149.978 L 235.577 156.715 L 222.103 156.715 L 222.103 170.189 L 215.366 170.189 L 215.366 156.715 L 201.892 156.715 L 201.892 170.189 L 195.155 170.189 L 195.155 156.715 L 181.682 156.715 L 181.682 149.978 L 195.155 149.978 L 195.155 136.505 L 181.682 136.505 L 181.682 129.768 L 195.155 129.768 L 195.155 116.294 Z M 215.366 136.504 L 201.892 136.504 L 201.892 149.978 L 215.366 149.978 Z M 255.569 84.452 C 255.567 79.622 254.534 75.354 252.445 71.692 C 250.393 68.089 247.32 65.07 243.198 62.683 C 209.173 43.064 175.115 23.505 141.101 3.866 C 131.931 -1.428 123.04 -1.234 113.938 4.136 C 100.395 12.122 32.59 50.969 12.385 62.672 C 4.064 67.49 0.015 74.862 0.013 84.443 C 0 123.898 0.013 163.353 0 202.808 C 0 207.532 0.991 211.718 2.988 215.325 C 5.041 219.036 8.157 222.138 12.374 224.579 C 32.58 236.282 100.394 275.126 113.934 283.115 C 123.04 288.488 131.931 288.68 141.104 283.385 C 175.119 263.745 209.179 244.186 243.209 224.567 C 247.426 222.127 250.542 219.023 252.595 215.315 C 254.589 211.707 255.582 207.522 255.582 202.797 C 255.582 202.797 255.582 123.908 255.569 84.452 Z M 128.457 48.626 C 163.601 48.626 194.284 67.712 210.719 96.082 L 210.559 95.809 L 169.209 119.617 C 161.063 105.824 146.129 96.515 128.996 96.323 L 128.456 96.32 C 102.331 96.32 81.151 117.5 81.151 143.625 C 81.142 151.859 83.294 159.952 87.39 167.095 C 95.544 181.33 110.873 190.931 128.457 190.931 C 146.008 190.931 161.319 181.363 169.481 167.166 L 210.768 191.084 C 194.513 219.214 164.25 238.241 129.515 238.62 L 128.457 238.626 C 93.202 238.626 62.432 219.422 46.038 190.902 C 38.035 176.979 33.456 160.838 33.456 143.625 C 33.456 91.159 75.988 48.625 128.456 48.625 Z M 169.481 167.166 L 169.678 166.821 C 169.613 166.936 169.547 167.051 169.481 167.166 Z" style="" id="object-0" transform="matrix(0.9999999999999999, 0, 0, 0.9999999999999999, 0, -7.105427357601002e-15)"/></svg>