<?xml version="1.0" encoding="utf-8"?>
<svg width="800px" height="800px" viewBox="0 0 256 256" version="1.1" xmlns="http://www.w3.org/2000/svg" preserveAspectRatio="xMidYMid" fill="#000000" xmlns:bx="https://boxy-svg.com"><defs><bx:export><bx:file format="svg" path="django.svg"/></bx:export></defs><g id="SVGRepo_bgCarrier" stroke-width="0"/><g id="SVGRepo_tracerCarrier" stroke-linecap="round" stroke-linejoin="round"/><path d="M 186.377 94.198 L 186.377 160.424 C 186.377 183.243 184.708 194.188 179.699 203.649 C 175.06 212.741 168.938 218.491 156.324 224.799 L 129.795 212.184 C 142.41 206.248 148.532 201.055 152.427 193.075 C 156.509 184.913 157.809 175.451 157.809 150.593 L 157.809 94.198 Z M 140.928 50.079 L 140.928 182.317 C 126.273 185.099 115.513 186.212 103.826 186.212 C 68.949 186.212 50.769 170.445 50.769 140.205 C 50.769 111.079 70.063 92.158 99.93 92.158 C 104.567 92.158 108.092 92.528 112.359 93.641 L 112.359 50.079 Z M 102.713 115.16 C 88.243 115.16 79.894 124.065 79.894 139.647 C 79.894 154.861 87.872 163.208 102.528 163.208 C 105.68 163.208 108.278 163.023 112.359 162.467 L 112.359 116.643 C 109.02 115.531 106.238 115.16 102.713 115.16 Z M 186.377 50.231 L 186.377 79.542 L 157.809 79.542 L 157.809 50.231 Z M 0 28 L 0 228 C 0 243.464 12.536 256 28 256 L 228 256 C 243.464 256 256 243.464 256 228 L 256 28 C 256 12.536 243.464 0 228 0 L 28 0 C 12.536 0 0 12.536 0 28 Z" style=""/></svg>