<!DOCTYPE svg PUBLIC "-//W3C//DTD SVG 1.1//EN" "http://www.w3.org/Graphics/SVG/1.1/DTD/svg11.dtd">
<!-- Uploaded to: SVG Repo, www.svgrepo.com, Transformed by: SVG Repo Mixer Tools -->
<svg fill="#000000" width="800px" height="800px" viewBox="0 0 32 32" version="1.1" xmlns="http://www.w3.org/2000/svg">
<g id="SVGRepo_bgCarrier" stroke-width="0"/>
<g id="SVGRepo_tracerCarrier" stroke-linecap="round" stroke-linejoin="round"/>
<g id="SVGRepo_iconCarrier"> <title>fortran</title> <path d="M26.926 9.107v4.845l-1.154-0.006c-0.053 0.001-0.116 0.001-0.179 0.001-0.4 0-0.796-0.019-1.187-0.056l0.050 0.004c-0.16-0.045-0.164-0.063-0.24-1.050-0.050-0.974-0.187-1.89-0.404-2.774l0.021 0.1c-0.186-1.559-1.359-2.797-2.868-3.079l-0.022-0.003c-0.637-0.111-3.418-0.22-5.705-0.222l-1.577-0.004v7.285l0.829-0.041c0.734-0.005 1.44-0.12 2.103-0.329l-0.050 0.014c0.431-0.216 0.771-0.563 0.972-0.987l0.005-0.013c0.228-0.567 0.382-1.223 0.431-1.909l0.001-0.021c0.041-0.358 0.088-0.716 0.104-0.796 0.030-0.145 0.035-0.146 1.297-0.146h1.267v11.64h-2.581l-0.044-0.671c-0.033-1.058-0.25-2.056-0.62-2.976l0.021 0.058c-0.389-0.752-1.154-1.090-2.692-1.189q-0.418-0.025-0.834-0.074l-0.215-0.034 0.025 3.662c0.026 3.863 0.038 4.013 0.332 4.337 0.302 0.333 0.477 0.355 3.538 0.461 0.063 0.003 0.081 0.308 0.081 1.303v1.3h-12.554v-1.3c0-1.194 0.009-1.3 0.114-1.303 0.063-0.001 0.68-0.029 1.373-0.061 1.115-0.053 1.293-0.076 1.557-0.209 0.188-0.085 0.338-0.228 0.429-0.406l0.002-0.005c0.133-0.258 0.134-0.318 0.134-8.486 0.056-1.003 0.087-2.176 0.087-3.357 0-1.786-0.073-3.556-0.215-5.306l0.015 0.23c-0.152-0.262-0.394-0.457-0.684-0.544l-0.008-0.002c-0.454-0.065-0.981-0.104-1.517-0.108l-0.004-0-1.284-0.034v-2.585h21.851zM25.432 0.98h-18.865c-0 0-0.001 0-0.001 0-3.085 0-5.586 2.501-5.586 5.586 0 0 0 0.001 0 0.001v-0 18.866c0 3.085 2.501 5.586 5.586 5.586 0 0 0.001 0 0.001 0h18.866c3.085 0 5.586-2.501 5.586-5.586 0-0 0-0.001 0-0.001v0-18.865c0-0 0-0.001 0-0.001 0-3.085-2.501-5.586-5.586-5.586-0 0-0.001 0-0.001 0h0z"/> </g>
</svg>