<?xml version="1.0" encoding="UTF-8" standalone="no"?>
<svg
   width="80.302902"
   height="40.702435"
   viewBox="0 0 80.302902 40.702435"
   fill="none"
   version="1.1"
   id="svg26"
   sodipodi:docname="langchain.svg"
   inkscape:version="1.2.2 (b0a8486541, 2022-12-01)"
   xmlns:inkscape="http://www.inkscape.org/namespaces/inkscape"
   xmlns:sodipodi="http://sodipodi.sourceforge.net/DTD/sodipodi-0.dtd"
   xmlns="http://www.w3.org/2000/svg"
   xmlns:svg="http://www.w3.org/2000/svg">
  <defs
     id="defs30" />
  <sodipodi:namedview
     id="namedview28"
     pagecolor="#505050"
     bordercolor="#ffffff"
     borderopacity="1"
     inkscape:showpageshadow="0"
     inkscape:pageopacity="0"
     inkscape:pagecheckerboard="1"
     inkscape:deskcolor="#505050"
     showgrid="false"
     inkscape:zoom="10.24"
     inkscape:cx="29.345703"
     inkscape:cy="23.4375"
     inkscape:window-width="1920"
     inkscape:window-height="940"
     inkscape:window-x="0"
     inkscape:window-y="0"
     inkscape:window-maximized="1"
     inkscape:current-layer="svg26" />
  <path
     d="m 53.000145,14.731651 c -0.638271,0 -1.23841,0.247261 -1.687642,0.696433 l -1.815271,1.810399 c -0.48971,0.488387 -0.741302,1.166535 -0.689756,1.861765 0.0037,0.03795 0.0073,0.0759 0.01107,0.11506 0.06502,0.533676 0.299467,1.014726 0.678689,1.391722 0.261455,0.260733 0.549856,0.426015 0.899666,0.541075 0.01841,0.105255 0.02821,0.211714 0.02821,0.318233 0,0.479846 -0.186513,0.930281 -0.525317,1.268122 l -0.111691,0.11139 c -0.606274,-0.206902 -1.111982,-0.509197 -1.568552,-0.964564 -0.606273,-0.604709 -1.007629,-1.368505 -1.158596,-2.206943 l -0.02087,-0.116323 -0.09208,0.0747 c -0.06255,0.05016 -0.121495,0.104053 -0.17671,0.159087 l -1.815271,1.810399 c -0.930341,0.927815 -0.930341,2.439529 0,3.367343 0.46517,0.463908 1.076376,0.696493 1.688844,0.696493 0.612469,0 1.222471,-0.232585 1.687641,-0.696493 l 1.815272,-1.810339 c 0.930341,-0.927875 0.930341,-2.438326 0,-3.367403 -0.247983,-0.247201 -0.543721,-0.433293 -0.878796,-0.553225 -0.0184,-0.108985 -0.02827,-0.217909 -0.02827,-0.324368 0,-0.521467 0.206241,-1.015989 0.584259,-1.392985 0.607537,0.206842 1.146326,0.542277 1.601693,0.996381 0.60507,0.603446 1.005223,1.36604 1.158595,2.206943 l 0.02087,0.116263 0.09208,-0.07464 c 0.06261,-0.05016 0.121495,-0.104052 0.177972,-0.160349 l 1.815272,-1.81034 c 0.930341,-0.927875 0.931544,-2.439528 0,-3.367403 -0.450435,-0.449172 -1.04943,-0.696433 -1.688844,-0.696433 z"
     fill="CurrentColor"
     id="path2"
     style="fill:#000000;stroke-width:0.601462" />
  <path
     d="M 52.027401,8.1107404 H 28.275499 c -6.76767,0 -12.273607,5.4910716 -12.273607,12.2404876 0,6.749362 5.505937,12.240467 12.273607,12.240467 h 23.751902 c 6.767646,0 12.273607,-5.491105 12.273607,-12.240467 0,-6.749416 -5.505961,-12.2404876 -12.273607,-12.2404876 z M 40.312251,27.301358 c -0.391552,0.08078 -0.832183,0.09545 -1.13165,-0.216646 -0.110489,0.253335 -0.368215,0.119931 -0.567058,0.08691 -0.01841,0.05137 -0.03434,0.09665 -0.05155,0.14808 -0.661547,0.04409 -1.157392,-0.629129 -1.472799,-1.137124 -0.626001,-0.337841 -1.336628,-0.54348 -1.976102,-0.89726 -0.03681,0.582696 0.09088,1.304871 -0.465171,1.680664 -0.02821,1.119982 1.698709,0.132201 1.857013,0.96697 -0.122698,0.01347 -0.258929,-0.01961 -0.357148,0.07464 -0.450434,0.437022 -0.96715,-0.330443 -1.486332,-0.01341 -0.697154,0.350051 -0.767104,0.636467 -1.629961,0.708702 -0.04782,-0.07224 -0.02821,-0.119992 0.01227,-0.164018 0.243051,-0.281545 0.260252,-0.613251 0.675081,-0.733242 -0.427098,-0.0673 -0.784306,0.167747 -1.14392,0.353779 -0.467637,0.190964 -0.463908,-0.430887 -1.183136,0.03302 -0.07981,-0.06484 -0.04174,-0.123601 0.0037,-0.173763 0.182845,-0.222781 0.423429,-0.255861 0.694689,-0.243592 -1.334163,-0.741782 -1.96257,0.907005 -2.578707,0.08691 -0.185311,0.04896 -0.255261,0.215383 -0.371884,0.332909 -0.100624,-0.110128 -0.02454,-0.243592 -0.01961,-0.373328 -0.120292,-0.0563 -0.272522,-0.08324 -0.236915,-0.275409 -0.235653,-0.07957 -0.400093,0.05997 -0.575599,0.192167 -0.158365,-0.122397 0.106759,-0.301092 0.155839,-0.428421 0.141163,-0.244795 0.462704,-0.05016 0.625941,-0.22645 0.463967,-0.26314 1.110779,0.164018 1.641028,0.09184 0.408693,0.05137 0.914342,-0.367253 0.709364,-0.784667 -0.436902,-0.556893 -0.359614,-1.285203 -0.369418,-1.951082 -0.05401,-0.388063 -0.988021,-0.882584 -1.258017,-1.301202 -0.333872,-0.376996 -0.594064,-0.813958 -0.854256,-1.243582 -0.938942,-1.812866 -0.643143,-4.142206 -1.826339,-5.825276 -0.53512,0.295017 -1.232274,0.155477 -1.693716,-0.239923 -0.249185,0.22645 -0.260252,0.52267 -0.27986,0.837294 -0.597732,-0.596108 -0.52285,-1.722285 -0.04541,-2.385697 0.195174,-0.261943 0.428361,-0.477374 0.688553,-0.667106 0.05888,-0.04284 0.07855,-0.08446 0.07729,-0.150557 0.472568,-2.120045 3.695621,-1.711213 4.714317,-0.209309 0.738895,0.924182 0.962278,2.146953 1.800535,3.005059 1.127921,1.231372 2.413004,2.315868 3.453774,3.626814 0.984352,1.198352 1.687641,2.603547 2.301312,4.019808 0.250389,0.469983 0.252855,1.046544 0.623535,1.448019 0.182845,0.242389 1.076376,0.902133 0.882465,1.135921 0.111691,0.242329 0.94628,0.576501 0.656616,0.811552 z m 15.653701,-7.231674 -1.815211,1.810339 c -0.483635,0.482312 -1.081308,0.842167 -1.729383,1.039206 l -0.03314,0.0098 -0.01227,0.03182 c -0.211113,0.55575 -0.531452,1.051475 -0.953678,1.471356 l -1.815271,1.810339 c -0.791644,0.789539 -1.844683,1.224035 -2.966529,1.224035 -1.121787,0 -2.174886,-0.434496 -2.96653,-1.224035 -1.636036,-1.631645 -1.636036,-4.285414 0,-5.91706 l 1.815272,-1.810339 c 0.486041,-0.484718 1.067835,-0.833566 1.726916,-1.035537 l 0.03314,-0.0098 0.01227,-0.03182 c 0.211113,-0.55575 0.532654,-1.052678 0.956143,-1.476227 l 1.815212,-1.81034 c 0.791644,-0.78952 1.844743,-1.224058 2.966529,-1.224058 1.121846,0 2.174885,0.434538 2.966529,1.224058 0.791704,0.789479 1.227403,1.839751 1.227403,2.95853 0,1.118779 -0.435699,2.170194 -1.227403,2.95853 z"
     fill="CurrentColor"
     id="path4"
     style="fill:#000000;stroke-width:0.601462" />
  <path
     d="m 32.928347,25.110293 c -0.159568,0.619386 -0.211114,1.673267 -1.018696,1.703881 -0.06628,0.357449 0.247922,0.492056 0.53512,0.376996 0.283529,-0.129735 0.418497,0.10285 0.51425,0.334172 0.438165,0.06364 1.08624,-0.145674 1.110779,-0.663412 -0.654209,-0.375793 -0.856722,-1.09063 -1.140251,-1.752839 z"
     fill="CurrentColor"
     id="path6"
     style="fill:#000000;stroke-width:0.601462" />
</svg>
