<?xml version="1.0" encoding="iso-8859-1"?>
<!-- Generator: Adobe Illustrator 19.0.0, SVG Export Plug-In . SVG Version: 6.00 Build 0)  -->
<svg version="1.1" id="Layer_1" xmlns="http://www.w3.org/2000/svg" xmlns:xlink="http://www.w3.org/1999/xlink" x="0px" y="0px"
	 viewBox="0 0 511.999 511.999" style="enable-background:new 0 0 511.999 511.999;" xml:space="preserve">
<g>
	<g>
		<path d="M511.699,222.607L495.06,158.23c-0.789-3.052-3.047-5.51-6.02-6.553s-6.272-0.537-8.797,1.351l-53.241,39.83
			c-1.503,1.124-2.637,2.669-3.258,4.438l-25.031,71.272c-6.59-6.074-13.766-11.522-21.435-16.244l9.183-79.054
			c23.296-31.179,32.794-62.485,28.214-93.09C407.61,32.988,369.538,5.373,367.921,4.22c-3.391-2.416-7.965-2.331-11.264,0.216
			c-3.298,2.546-4.54,6.949-3.061,10.843l4.432,11.657c7.195,18.933-0.004,40.54-17.115,51.375
			c-27.158,17.197-36.568,51.729-21.889,80.327l4.724,9.204l-3.732,64.796c-5.038-0.556-10.154-0.851-15.337-0.851
			c-10.825,0-21.526,1.272-31.92,3.72l-1.68-7.553c2.548-1.66,4.746-3.842,6.427-6.484c3.097-4.868,4.113-10.651,2.861-16.282
			c-1.25-5.633-4.621-10.441-9.488-13.538c-2.49-1.584-5.22-2.617-8.045-3.087l-2.26-10.172c-0.948-4.268-0.734-8.575,0.589-11.815
			c5.249-12.865,2.221-30.026-7.204-40.807l-50.92-58.255c-2.275-2.603-5.796-3.756-9.168-3.006
			c-3.377,0.75-6.073,3.285-7.032,6.608l-21.45,74.341c-3.968,13.757,0.556,30.585,10.761,40.015
			c2.57,2.375,4.588,6.185,5.537,10.454l2.261,10.174c-2.36,1.624-4.395,3.714-5.979,6.202c-3.098,4.868-4.114,10.651-2.863,16.282
			c1.25,5.633,4.621,10.441,9.489,13.539c2.645,1.683,5.559,2.749,8.572,3.174l7.437,33.452
			c-6.48,7.336-12.194,15.351-17.018,23.932c-2.569-0.436-5.152-0.76-7.741-1.003l-42.229-65.262
			c-1.363-2.105-3.505-3.584-5.957-4.108c-2.449-0.527-5.012-0.055-7.117,1.307L18.944,299.373
			c-4.383,2.836-5.637,8.69-2.801,13.073L53.77,370.6C22.948,378.126,0,405.954,0,439.057c0,38.862,31.616,70.478,70.478,70.478
			H429.54c38.862,0,70.478-31.616,70.478-70.478c0-27.827-16.425-52.239-40.285-63.631l51.732-147.321
			C512.087,226.336,512.168,224.423,511.699,222.607z M480.285,176.615l2.492,9.644c-1.838-0.226-3.659-0.645-5.435-1.269
			c-1.777-0.624-3.461-1.435-5.036-2.406L480.285,176.615z M437.165,216.141c5.066,3.529,10.432,6.576,16.015,9.131l-27.283,77.7
			c-3.706-6.61-7.934-12.89-12.633-18.778L437.165,216.141z M351.029,94.286c17.772-11.254,28.126-30.568,28.649-50.693
			c7.21,10.268,13.929,23.57,16.296,39.388c3.701,24.735-4.058,50.544-23.047,76.78l-33.566-2.912l-3.514-6.845
			C325.663,130.167,332.19,106.215,351.029,94.286z M341.419,189.867l0.795-13.791l24.636,2.137l-1.595,13.723L341.419,189.867z
			 M363.073,210.724L359.324,243c-6.608-2.84-13.477-5.183-20.564-6.978l1.571-27.271L363.073,210.724z M188.976,171.58
			c-4.983-4.605-7.418-13.974-5.424-20.884l11.177-38.74l6.705,30.166c0.979,4.407,4.886,7.404,9.219,7.404
			c0.679,0,1.369-0.074,2.06-0.227c5.098-1.133,8.311-6.183,7.177-11.28l-6.705-30.164l26.534,30.356
			c4.733,5.415,6.497,14.935,3.932,21.22c-2.782,6.818-3.329,15.008-1.539,23.06l1.92,8.641l-41.973,9.329l-1.921-8.641
			C198.348,183.766,194.385,176.578,188.976,171.58z M198.588,226.118c-0.03,0.006-0.059,0.018-0.091,0.025l-1.722,0.383
			c-0.903,0.198-1.602-0.083-2.031-0.357c-0.43-0.274-0.982-0.788-1.182-1.689c-0.2-0.899,0.083-1.6,0.357-2.029
			c0.273-0.43,0.788-0.983,1.688-1.184l1.329-0.295c0,0,0,0,0.001,0l61.76-13.727c0.212-0.047,0.412-0.067,0.601-0.067
			c0.614,0,1.1,0.214,1.429,0.424c0.43,0.272,0.982,0.788,1.182,1.689c0.2,0.9-0.083,1.601-0.357,2.029
			c-0.272,0.43-0.788,0.983-1.688,1.184L198.588,226.118z M254.634,241.114c-8.408,3.25-16.52,7.307-24.207,12.183
			c-4.844,3.072-9.478,6.431-13.88,10.05l-4.629-20.819l41.002-9.114L254.634,241.114z M37.148,310.11l85.727-55.488l30.628,47.335
			c-18.201,2.183-35.339,9.09-50.149,20.299c-13.92,10.534-25.045,24.584-32.2,40.412L37.148,310.11z M481.111,439.057
			c0,28.436-23.136,51.57-51.57,51.57H70.478c-28.435,0-51.57-23.134-51.57-51.57c0-28.436,23.136-51.57,51.57-51.57
			c1.249,0,2.609,0.06,4.161,0.184c4.465,0.355,8.535-2.448,9.809-6.72c10.692-35.82,44.285-60.838,81.692-60.838
			c6.79,0,13.604,0.821,20.249,2.44c4.3,1.045,8.749-1.027,10.712-4.993c20.401-41.243,61.623-66.863,107.577-66.863
			c66.15,0,119.966,53.817,119.966,119.966c0,2.125-0.072,4.416-0.219,7.001c-0.295,5.166,3.615,9.609,8.777,9.971
			C460.066,389.514,481.111,412.103,481.111,439.057z M443.42,364.814c-0.527-12.623-2.74-24.818-6.431-36.362l34.032-96.92
			c5.951,1.495,12.039,2.456,18.194,2.868L443.42,364.814z M448.093,200.695l8.451-6.32c4.234,3.686,9.141,6.561,14.534,8.456
			c4.808,1.688,9.803,2.536,14.81,2.536c0.604,0,1.209-0.033,1.813-0.058l2.642,10.225
			C475.203,214.498,460.553,209.353,448.093,200.695z"/>
	</g>
</g>
<g>
	<g>
		<path d="M293.572,380.879c-0.026,0-0.052,0-0.079,0c-14.921-21.246-38.852-33.763-65.096-33.763
			c-43.901,0-79.618,35.717-79.618,79.618c0,5.221,4.232,9.454,9.454,9.454c5.222,0,9.454-4.233,9.454-9.454
			c0-33.476,27.234-60.71,60.711-60.71c21.479,0,40.934,11.003,52.038,29.432c1.874,3.11,5.36,4.871,8.981,4.533
			c1.431-0.134,2.829-0.203,4.155-0.203c24.168,0,43.83,19.662,43.83,43.83c0,5.221,4.232,9.454,9.454,9.454
			s9.454-4.233,9.454-9.454C356.31,409.023,328.167,380.879,293.572,380.879z"/>
	</g>
</g>
<g>
</g>
<g>
</g>
<g>
</g>
<g>
</g>
<g>
</g>
<g>
</g>
<g>
</g>
<g>
</g>
<g>
</g>
<g>
</g>
<g>
</g>
<g>
</g>
<g>
</g>
<g>
</g>
<g>
</g>
</svg>
