<?xml version="1.0" encoding="utf-8"?>
<!-- Generator: Adobe Illustrator 26.0.1, SVG Export Plug-In . SVG Version: 6.00 Build 0)  -->
<svg version="1.1" id="Layer_1" xmlns="http://www.w3.org/2000/svg" xmlns:xlink="http://www.w3.org/1999/xlink" x="0px" y="0px"
	 viewBox="0 0 58.55 33.55" style="enable-background:new 0 0 58.55 33.55;" xml:space="preserve">
<style type="text/css">
	.st0{fill:none;stroke:#FFFFFF;stroke-miterlimit:10;}
	.st1{fill:#164955;}
	.st2{fill:#FFFFFF;}
	.st3{fill:none;stroke:#FFFFFF;stroke-width:2;stroke-miterlimit:10;}
	.st4{fill:none;stroke:#FFFFFF;stroke-width:3;stroke-miterlimit:10;}
	.st5{fill:#30323E;}
	.st6{fill:#FFFFFF;stroke:#FFFFFF;stroke-miterlimit:10;}
	.st7{fill:#FFFFFF;stroke:#164955;stroke-miterlimit:10;}
	.st8{fill:#174955;}
	.st9{fill:none;}
	.st10{fill:none;stroke:#F1F2F2;stroke-miterlimit:10;}
	.st11{fill:#164955;stroke:#FFFFFF;stroke-width:3;stroke-miterlimit:10;}
</style>
<g>
	<polygon class="st9" points="34.17,17.54 29.34,20.61 29.33,20.62 29.32,20.62 29.32,20.62 29.31,20.61 24.52,17.57 1.93,32.15 
		56.8,32.15 	"/>
	<polygon class="st9" points="1.9,29.78 22.67,16.39 1.9,3.2 	"/>
	<polygon class="st9" points="36.03,16.36 56.84,29.79 56.84,3.14 	"/>
	<polygon class="st9" points="29.32,18.25 56.84,0.77 56.84,0.73 1.9,0.73 1.9,0.83 	"/>
</g>
<line class="st11" x1="1.17" y1="1.6" x2="29.83" y2="19.77"/>
<line class="st11" x1="28.77" y1="19.79" x2="57.3" y2="1.62"/>
<line class="st4" x1="34.19" y1="16.34" x2="57.53" y2="31.4"/>
<line class="st4" x1="24.61" y1="16.34" x2="0.94" y2="31.61"/>
<path class="st4" d="M54.37,32.53H4.15c-1.74,0-3.16-1.42-3.16-3.16V3.89c0-1.74,1.42-3.16,3.16-3.16h50.22
	c1.74,0,3.16,1.42,3.16,3.16v25.48C57.53,31.11,56.11,32.53,54.37,32.53z"/>
</svg>
