<?xml version="1.0" encoding="utf-8"?>
<svg viewBox="32.18585611720149 20.47 223.6851360941233 247.05999999999997" xmlns="http://www.w3.org/2000/svg" width="2113" height="2500" xmlns:bx="https://boxy-svg.com" preserveAspectRatio="none"><defs><bx:export><bx:file format="svg" path="c.svg"/></bx:export></defs><path d="M 252.79 93.61 L 252.79 194.39 C 252.863 198.103 251.985 201.772 250.24 205.05 C 248.353 208.366 245.584 211.094 242.24 212.93 C 213.267 229.603 184.31 246.3 155.37 263.02 C 147.56 267.53 140 267.37 132.25 262.79 C 120.73 255.99 63.03 222.94 45.84 212.94 C 42.496 211.104 39.727 208.376 37.84 205.06 C 36.095 201.782 35.217 198.113 35.29 194.4 L 35.29 93.6 C 35.29 85.44 38.73 79.16 45.81 75.06 C 63 65.09 120.69 32 132.21 25.23 C 139.96 20.65 147.52 20.49 155.32 25 C 184.287 41.667 213.243 58.357 242.19 75.07 C 245.455 76.873 248.174 79.522 250.06 82.74 C 251.88 86.069 252.793 89.817 252.71 93.61 Z M 113.2 164.09 C 112.847 163.463 112.513 162.823 112.2 162.17 C 98.801 134.497 120.383 102.697 151.048 104.93 C 161.953 105.724 172.056 110.954 179 119.4 C 179.53 120.04 180 120.71 180.53 121.4 C 180.77 121.73 181.01 122.06 181.23 122.4 L 216.3 102.2 C 215.447 100.827 214.553 99.493 213.62 98.2 C 213.13 97.51 212.62 96.85 212.14 96.2 C 174.622 47.461 98.412 57.613 74.961 114.474 C 65.959 136.301 67.072 160.991 78 181.92 C 78.34 182.56 78.69 183.19 79 183.82 C 108.688 236.201 183.444 238.178 215.86 187.44 L 181.57 166.71 C 174.195 177.956 161.648 184.727 148.2 184.72 C 133.644 184.74 120.232 176.835 113.2 164.09 Z" style=""/></svg>