<?xml version="1.0" encoding="utf-8"?>
<svg xmlns="http://www.w3.org/2000/svg" viewBox="0 0.2676 255.582 287.2527" width="2218.37px" height="2493.51px" preserveAspectRatio="none"><path d="M 248.728 148.661 L 239.006 148.661 L 239.006 158.385 L 229.282 158.385 L 229.282 148.661 L 219.561 148.661 L 219.561 138.94 L 229.282 138.94 L 229.282 129.218 L 239.006 129.218 L 239.006 138.94 L 248.728 138.94 Z M 213.253 148.661 L 203.532 148.661 L 203.532 158.385 L 193.81 158.385 L 193.81 148.661 L 184.088 148.661 L 184.088 138.94 L 193.81 138.94 L 193.81 129.218 L 203.532 129.218 L 203.532 138.94 L 213.253 138.94 Z M 252.445 71.959 C 250.393 68.357 247.32 65.338 243.198 62.951 C 209.173 43.332 175.115 23.773 141.101 4.134 C 131.931 -1.16 123.04 -0.967 113.938 4.403 C 100.395 12.39 32.59 51.237 12.385 62.94 C 4.064 67.757 0.015 75.129 0.013 84.711 C 0 124.166 0.013 163.62 0 203.076 C 0.002 207.8 0.991 211.985 2.988 215.593 C 5.041 219.304 8.157 222.406 12.374 224.847 C 32.58 236.55 100.394 275.394 113.934 283.383 C 123.04 288.756 131.931 288.948 141.104 283.652 C 175.119 264.012 209.179 244.454 243.209 224.835 C 247.426 222.395 250.542 219.291 252.595 215.583 C 254.589 211.975 255.58 207.79 255.582 203.065 C 255.582 203.065 255.582 124.176 255.569 84.72 C 255.567 79.89 254.534 75.622 252.445 71.959 Z M 201.505 185.987 C 186.88 211.542 159.346 228.768 127.791 228.768 C 96.294 228.768 68.803 211.611 54.157 186.131 C 47.007 173.692 42.916 159.271 42.916 143.893 C 42.916 97.019 80.915 59.019 127.791 59.019 C 159.189 59.019 186.602 76.071 201.285 101.417 L 164.344 122.689 C 157.023 110.101 143.4 101.63 127.791 101.63 C 104.45 101.63 85.527 120.552 85.527 143.893 C 85.519 151.25 87.441 158.479 91.101 164.861 C 98.386 177.579 112.081 186.157 127.791 186.157 C 143.598 186.157 157.371 177.47 164.619 164.616 Z" style="" id="object-0"/></svg>