<?xml version="1.0" encoding="utf-8"?>
<svg fill="#000000" width="800px" height="800px" viewBox="0 0 32 32" version="1.1" xmlns="http://www.w3.org/2000/svg" xmlns:bx="https://boxy-svg.com"><defs><bx:export><bx:file format="svg" path="etc.svg"/></bx:export></defs><title>etc</title><path d="M 10.297 16 C 10.297 14.5 9.047 13.25 7.547 13.25 C 6.016 13.25 4.797 14.5 4.797 16 C 4.797 17.5 6.016 18.75 7.547 18.75 C 9.047 18.75 10.297 17.5 10.297 16 Z M 18.735 16 C 18.735 14.5 17.485 13.25 15.985 13.25 C 14.485 13.25 13.235 14.5 13.235 16 C 13.235 17.5 14.485 18.75 15.985 18.75 C 17.485 18.75 18.735 17.5 18.735 16 Z M 27.203 16 C 27.203 14.5 25.984 13.25 24.453 13.25 C 22.953 13.25 21.703 14.5 21.703 16 C 21.703 17.5 22.953 18.75 24.453 18.75 C 25.984 18.75 27.203 17.5 27.203 16 Z"/></svg>