<?xml version="1.0" encoding="utf-8"?>
<svg enable-background="new 0 0 792 612" height="612" viewBox="0 0 792 612" width="792" xmlns="http://www.w3.org/2000/svg" xmlns:bx="https://boxy-svg.com"><defs><bx:export><bx:file format="svg" path="scikit-learn.svg"/></bx:export></defs><path d="m273.943 285.613h225.242v83.948h-225.242z" fill="none"/><g style="" transform="matrix(2.84572, 0, 0, 2.84572, -342.092, -534.678)"><path d="M 262.345 340.091 C 258.874 343.286 255.829 345.644 253.212 347.159 C 250.595 348.679 248.099 349.438 245.724 349.438 C 242.992 349.438 240.788 348.379 239.117 346.26 C 237.443 344.139 236.609 341.295 236.609 337.717 C 236.609 332.356 237.771 325.92 240.095 318.416 C 242.415 310.906 245.24 303.986 248.558 297.655 L 258.287 294.053 C 258.592 293.951 258.824 293.899 258.978 293.899 C 259.716 293.899 260.326 294.443 260.794 295.526 C 261.267 296.614 261.505 298.076 261.505 299.914 C 261.505 305.123 260.306 310.166 257.903 315.043 C 255.501 319.922 251.749 325.129 246.643 330.67 C 246.438 333.326 246.336 335.15 246.336 336.147 C 246.336 338.37 246.744 340.129 247.561 341.432 C 248.379 342.737 249.463 343.385 250.817 343.385 C 252.198 343.385 253.665 342.891 255.223 341.895 C 256.749 340.916 259.065 338.908 262.166 335.863 C 262.478 331.032 264.338 326.626 267.752 322.647 C 271.502 318.266 275.666 316.077 280.236 316.077 C 282.611 316.077 284.511 316.692 285.943 317.917 C 287.373 319.144 288.088 320.751 288.088 322.743 C 288.088 328.03 282.471 332.317 271.236 335.612 C 272.256 340.589 274.924 343.081 279.24 343.081 C 280.926 343.081 282.533 342.628 284.064 341.724 C 285.548 340.846 287.756 338.934 290.694 335.994 C 291.058 333.079 292.057 330.27 293.694 327.568 C 295.803 324.095 298.503 321.289 301.796 319.144 C 305.089 316.999 308.003 315.925 310.528 315.925 C 313.721 315.925 315.956 317.394 317.233 320.329 L 325.061 316.003 L 327.209 316.003 L 323.828 327.224 C 322.092 332.869 321.221 336.738 321.221 338.831 C 321.221 341.026 321.998 342.124 323.557 342.124 C 324.549 342.124 325.647 341.595 326.848 340.534 C 328.049 339.473 329.731 337.858 331.901 335.688 L 331.901 335.713 C 333.547 333.914 335.055 332.003 336.425 329.981 C 334.226 329.01 333.13 327.567 333.13 325.655 C 333.13 323.686 333.798 321.587 335.142 319.35 C 336.482 317.118 338.326 316.002 340.677 316.002 C 342.669 316.002 343.663 317.02 343.663 319.064 C 343.663 320.673 343.089 322.97 341.938 325.959 C 346.176 325.498 349.879 322.258 353.047 316.23 L 356.531 316.076 L 352.969 325.881 C 351.489 330.018 350.531 332.836 350.098 334.328 C 349.665 335.82 349.446 337.144 349.446 338.291 C 349.446 339.365 349.696 340.223 350.192 340.857 C 350.69 341.5 351.362 341.816 352.204 341.816 C 353.122 341.816 354.005 341.502 354.847 340.88 C 355.688 340.25 357.574 338.526 360.505 335.699 C 360.744 333.792 361.099 331.938 361.569 330.137 C 362.526 326.457 364.063 322.323 366.184 317.725 L 375.528 315.926 C 373.563 321.213 372.274 325.373 371.661 328.41 C 375.849 323.738 379.169 320.504 381.63 318.701 C 384.087 316.9 386.275 316.004 388.187 316.004 C 389.486 316.004 390.572 316.494 391.437 317.475 C 392.306 318.457 392.738 319.69 392.738 321.164 C 392.738 323.613 391.64 327.648 389.447 333.268 C 387.939 337.122 387.185 339.623 387.185 340.778 C 387.185 342.315 387.812 343.083 389.066 343.083 C 390.933 343.083 393.957 340.618 398.13 335.69 L 398.13 340.091 C 392.232 346.325 387.173 349.439 382.962 349.439 C 381.251 349.439 379.872 348.839 378.825 347.638 C 377.776 346.439 377.253 344.831 377.253 342.814 C 377.253 340.082 378.378 335.906 380.626 330.291 C 381.825 327.277 382.427 325.359 382.427 324.545 C 382.427 323.727 382.105 323.318 381.47 323.318 C 381.113 323.318 380.638 323.498 380.052 323.853 C 379.513 324.21 378.888 324.712 378.173 325.349 C 377.536 325.935 376.819 326.65 376.028 327.49 C 375.337 328.211 374.596 329.027 373.809 329.943 L 371.661 332.435 C 370.718 333.583 370.13 334.794 369.901 336.072 C 369.516 338.242 369.262 340.236 369.133 342.051 C 369.055 343.401 369.018 345.225 369.018 347.528 L 360.553 349.516 C 360.274 346.069 360.131 343.502 360.131 341.819 C 360.131 341.36 360.137 340.903 360.149 340.449 C 353.917 346.491 349.097 349.515 345.692 349.515 C 344.133 349.515 342.817 348.857 341.747 347.546 C 340.677 346.23 340.138 344.601 340.138 342.659 C 340.138 339.059 342.068 334.235 345.923 328.182 C 344.032 329.153 341.966 329.827 339.718 330.211 C 338.058 333.275 335.452 336.57 331.904 340.09 L 331.901 340.09 L 331.901 340.091 L 331.903 340.091 C 327.817 343.972 324.893 346.503 323.133 347.679 C 321.371 348.853 319.686 349.439 318.076 349.439 C 314.041 349.439 312.14 345.878 312.369 338.753 C 309.816 342.403 307.459 345.097 305.301 346.837 C 303.145 348.573 300.918 349.439 298.617 349.439 C 296.373 349.439 294.465 348.388 292.892 346.281 C 291.657 344.627 290.91 342.679 290.646 340.434 C 287.545 343.456 284.752 345.699 282.265 347.159 C 279.685 348.679 276.841 349.438 273.724 349.438 C 270.251 349.438 267.449 348.327 265.314 346.108 C 263.749 344.474 262.759 342.464 262.344 340.074 L 262.344 340.091 L 262.345 340.091 Z M 255.568 312.997 C 257.584 308.522 258.591 304.673 258.591 301.448 C 258.591 300.508 258.452 299.744 258.173 299.17 C 257.892 298.595 257.532 298.306 257.099 298.306 C 256.158 298.306 254.783 300.658 252.982 305.363 C 251.181 310.067 249.413 316.653 247.677 325.118 C 250.919 321.513 253.552 317.47 255.568 312.997 Z M 280.732 322.819 C 280.732 320.368 279.837 319.143 278.052 319.143 C 276.366 319.143 274.759 320.424 273.228 322.993 C 271.692 325.558 270.927 328.894 270.927 333.007 C 277.462 331.167 280.732 327.773 280.732 322.819 Z M 311.089 335.671 C 313.349 331.316 314.478 327.298 314.478 323.622 C 314.478 322.194 314.156 321.075 313.521 320.272 C 312.88 319.465 312.025 319.065 310.955 319.065 C 308.4 319.065 305.978 321.235 303.697 325.577 C 301.412 329.919 300.267 333.915 300.267 337.563 C 300.267 338.944 300.607 340.061 301.283 340.917 C 301.959 341.773 302.817 342.2 303.866 342.2 C 306.419 342.2 308.825 340.024 311.089 335.671 Z" style="stroke: rgb(0, 0, 0); fill: none;"/><path d="m194.35 298.411c-19.648-19.648-48.242-22.919-63.867-7.295-15.621 15.622-12.355 44.22 7.297 63.865 19.652 19.654 57.195 13.969 63.863 7.295 5.396-5.387 12.361-44.215-7.293-63.865z" style=""/><path d="M 274.651 298.634 L 276.657 298.318 C 276.77 299.122 277.083 299.738 277.598 300.166 C 278.113 300.595 278.832 300.809 279.756 300.809 C 280.687 300.809 281.379 300.619 281.83 300.24 C 282.281 299.86 282.506 299.415 282.506 298.904 C 282.506 298.446 282.307 298.085 281.908 297.822 C 281.63 297.642 280.939 297.413 279.835 297.135 C 278.348 296.759 277.316 296.434 276.741 296.16 C 276.166 295.886 275.731 295.507 275.434 295.022 C 275.137 294.537 274.989 294.002 274.989 293.416 C 274.989 292.883 275.111 292.389 275.355 291.934 C 275.6 291.479 275.932 291.102 276.353 290.801 C 276.668 290.568 277.098 290.371 277.643 290.21 C 278.188 290.049 278.772 289.968 279.395 289.968 C 280.334 289.968 281.159 290.103 281.869 290.373 C 282.579 290.644 283.103 291.01 283.441 291.472 C 283.779 291.934 284.012 292.552 284.14 293.326 L 282.156 293.596 C 282.066 292.98 281.805 292.499 281.373 292.154 C 280.941 291.808 280.331 291.635 279.542 291.635 C 278.61 291.635 277.945 291.789 277.547 292.097 C 277.149 292.405 276.95 292.766 276.95 293.179 C 276.95 293.442 277.033 293.679 277.198 293.889 C 277.363 294.107 277.622 294.287 277.975 294.43 C 278.178 294.505 278.776 294.678 279.767 294.949 C 281.202 295.332 282.203 295.645 282.77 295.89 C 283.337 296.134 283.783 296.489 284.106 296.955 C 284.429 297.42 284.59 297.999 284.59 298.69 C 284.59 299.366 284.393 300.003 283.999 300.6 C 283.604 301.197 283.035 301.659 282.292 301.986 C 281.548 302.313 280.706 302.476 279.767 302.476 C 278.212 302.476 277.027 302.153 276.212 301.507 C 275.397 300.861 274.876 299.903 274.651 298.634 Z M 294.811 297.822 L 296.806 298.081 C 296.588 299.456 296.03 300.533 295.132 301.31 C 294.235 302.087 293.132 302.476 291.825 302.476 C 290.187 302.476 288.87 301.941 287.875 300.871 C 286.88 299.8 286.382 298.266 286.382 296.267 C 286.382 294.975 286.596 293.844 287.024 292.875 C 287.453 291.906 288.104 291.179 288.979 290.694 C 289.854 290.21 290.807 289.968 291.836 289.968 C 293.136 289.968 294.199 290.297 295.025 290.954 C 295.852 291.611 296.381 292.545 296.614 293.754 L 294.642 294.058 C 294.455 293.254 294.122 292.649 293.645 292.244 C 293.168 291.838 292.591 291.635 291.915 291.635 C 290.893 291.635 290.063 292.001 289.425 292.734 C 288.786 293.467 288.467 294.626 288.467 296.211 C 288.467 297.818 288.775 298.986 289.391 299.715 C 290.007 300.444 290.811 300.809 291.802 300.809 C 292.599 300.809 293.264 300.565 293.797 300.076 C 294.33 299.588 294.668 298.837 294.811 297.822 Z M 298.552 288.018 L 298.552 285.685 L 300.581 285.685 L 300.581 288.018 L 298.552 288.018 Z M 298.552 302.206 L 298.552 290.238 L 300.581 290.238 L 300.581 302.206 L 298.552 302.206 Z M 303.676 302.206 L 303.676 285.685 L 305.705 285.685 L 305.705 295.106 L 310.506 290.238 L 313.131 290.238 L 308.556 294.678 L 313.593 302.206 L 311.092 302.206 L 307.136 296.087 L 305.705 297.462 L 305.705 302.206 L 303.676 302.206 Z M 315.216 288.018 L 315.216 285.685 L 317.244 285.685 L 317.244 288.018 L 315.216 288.018 Z M 315.216 302.206 L 315.216 290.238 L 317.244 290.238 L 317.244 302.206 L 315.216 302.206 Z M 324.763 300.392 L 325.056 302.183 C 324.485 302.304 323.975 302.364 323.524 302.364 C 322.787 302.364 322.216 302.247 321.811 302.014 C 321.405 301.781 321.119 301.475 320.954 301.096 C 320.789 300.717 320.706 299.918 320.706 298.701 L 320.706 291.816 L 319.219 291.816 L 319.219 290.238 L 320.706 290.238 L 320.706 287.274 L 322.723 286.057 L 322.723 290.238 L 324.763 290.238 L 324.763 291.816 L 322.723 291.816 L 322.723 298.814 C 322.723 299.393 322.759 299.765 322.831 299.93 C 322.902 300.095 323.019 300.227 323.18 300.324 C 323.341 300.422 323.572 300.471 323.873 300.471 C 324.098 300.471 324.395 300.445 324.763 300.392 Z M 333.7 347.727 C 336.176 345.251 338.501 342.693 340.673 340.068 C 341.283 336.789 343.137 332.72 346.234 327.857 C 344.343 328.828 342.277 329.502 340.029 329.886 C 338.369 332.949 335.763 336.245 332.215 339.765 L 332.212 339.765 L 332.212 339.766 L 332.214 339.766 C 328.128 343.646 325.204 346.178 323.444 347.353 C 321.682 348.528 319.997 349.113 318.387 349.113 C 314.352 349.113 312.451 345.553 312.68 338.428 C 310.127 342.078 307.77 344.771 305.612 346.512 C 303.456 348.247 301.229 349.113 298.928 349.113 C 296.684 349.113 294.776 348.063 293.203 345.956 C 291.968 344.302 291.221 342.353 290.957 340.108 C 287.856 343.131 285.063 345.373 282.576 346.834 C 279.996 348.353 277.152 349.113 274.035 349.113 C 270.562 349.113 267.76 348.002 265.625 345.783 C 264.06 344.149 263.07 342.139 262.655 339.748 L 262.655 339.766 L 262.656 339.766 C 259.185 342.961 256.14 345.319 253.523 346.834 C 250.906 348.353 248.41 349.113 246.035 349.113 C 243.303 349.113 241.099 348.054 239.428 345.935 C 237.754 343.814 236.92 340.969 236.92 337.391 C 236.92 332.031 238.082 325.595 240.406 318.091 C 242.726 310.581 245.551 303.661 248.869 297.329 L 258.598 293.728 C 258.903 293.626 259.135 293.574 259.289 293.574 C 260.027 293.574 260.637 294.117 261.105 295.201 C 261.578 296.289 261.816 297.751 261.816 299.589 C 261.816 304.798 260.617 309.841 258.214 314.718 C 255.812 319.597 252.06 324.804 246.954 330.345 C 246.749 333.001 246.647 334.824 246.647 335.822 C 246.647 338.045 247.055 339.804 247.872 341.107 C 248.69 342.411 249.774 343.06 251.128 343.06 C 252.509 343.06 253.976 342.565 255.534 341.569 C 257.06 340.591 259.376 338.583 262.477 335.538 C 262.789 330.707 264.649 326.3 268.063 322.322 C 271.813 317.941 275.977 315.752 280.547 315.752 C 282.922 315.752 284.822 316.367 286.254 317.592 C 287.684 318.819 288.399 320.425 288.399 322.418 C 288.399 327.704 282.782 331.992 271.547 335.287 C 272.567 340.264 275.235 342.756 279.551 342.756 C 281.237 342.756 282.844 342.303 284.375 341.399 C 285.859 340.521 288.067 338.608 291.005 335.669 C 291.369 332.754 292.368 329.944 294.005 327.242 C 296.114 323.77 298.814 320.964 302.107 318.819 C 305.4 316.674 308.314 315.6 310.839 315.6 C 314.032 315.6 316.267 317.069 317.544 320.004 L 325.372 315.678 L 327.52 315.678 L 324.139 326.899 C 322.403 332.544 321.532 336.413 321.532 338.506 C 321.532 340.701 322.309 341.799 323.868 341.799 C 324.86 341.799 325.958 341.27 327.159 340.209 C 328.36 339.147 330.042 337.533 332.212 335.363 L 332.212 335.388 C 333.858 333.589 335.366 331.678 336.736 329.656 C 334.537 328.685 333.441 327.242 333.441 325.329 C 333.441 323.361 334.109 321.262 335.453 319.025 C 336.793 316.793 338.637 315.677 340.988 315.677 C 342.98 315.677 343.974 316.694 343.974 318.739 C 343.974 320.348 343.4 322.645 342.249 325.634 C 346.487 325.173 350.19 321.933 353.358 315.905 L 355.716 315.8 C 368.128 287.523 365.504 256.888 346.272 237.656 C 319.35 210.736 270.073 216.364 236.206 250.229 C 202.339 284.095 212.136 348.796 223.636 360.299 C 232.929 369.592 299.835 381.592 333.7 347.727 Z M 255.879 312.672 C 257.895 308.197 258.902 304.348 258.902 301.122 C 258.902 300.183 258.763 299.419 258.484 298.845 C 258.203 298.27 257.843 297.981 257.41 297.981 C 256.469 297.981 255.094 300.333 253.293 305.038 C 251.492 309.742 249.724 316.328 247.988 324.793 C 251.23 321.188 253.863 317.145 255.879 312.672 Z M 281.043 322.494 C 281.043 320.043 280.148 318.818 278.363 318.818 C 276.677 318.818 275.07 320.098 273.539 322.668 C 272.003 325.233 271.238 328.569 271.238 332.682 C 277.773 330.842 281.043 327.448 281.043 322.494 Z M 311.4 335.346 C 313.66 330.991 314.789 326.973 314.789 323.297 C 314.789 321.869 314.467 320.75 313.832 319.947 C 313.191 319.14 312.336 318.74 311.266 318.74 C 308.711 318.74 306.289 320.91 304.008 325.252 C 301.723 329.593 300.578 333.59 300.578 337.238 C 300.578 338.618 300.918 339.736 301.594 340.592 C 302.27 341.448 303.128 341.875 304.177 341.875 C 306.73 341.875 309.136 339.699 311.4 335.346 Z" style="text-wrap-mode: nowrap;"/></g><path d="m345.568 357.979h327.432v42.963h-327.432z" fill="none"/></svg>