<?xml version="1.0" encoding="utf-8"?>
<svg width="109" height="113" viewBox="0 0 109 113" fill="none" xmlns="http://www.w3.org/2000/svg" xmlns:bx="https://boxy-svg.com"><path d="M63.7076 110.284C60.8481 113.885 55.0502 111.912 54.9813 107.314L53.9738 40.0627L99.1935 40.0627C107.384 40.0627 111.952 49.5228 106.859 55.9374L63.7076 110.284Z" fill-opacity="0.2" style=""/><path d="M45.317 2.07103C48.1765 -1.53037 53.9745 0.442937 54.0434 5.041L54.4849 72.2922H9.83113C1.64038 72.2922 -2.92775 62.8321 2.1655 56.4175L45.317 2.07103Z" style="fill: rgb(0, 0, 0);"/><defs><bx:export><bx:file format="svg" path="supabase.svg"/></bx:export></defs><path d="M 99.194 41.941 C 102.053 38.34 107.852 40.313 107.921 44.911 L 108.362 112.163 L 63.708 112.163 C 55.518 112.163 50.95 102.702 56.043 96.288 L 99.194 41.941 Z" style="fill: rgb(0, 0, 0); transform-origin: 81.131px 76.122px;" transform="matrix(-1, 0, 0, -1, 0.00001, -0.000006)"/></svg>